<svg xmlns="http://www.w3.org/2000/svg" xmlns:xlink="http://www.w3.org/1999/xlink" viewBox="0 0 995.37 937.3"><defs><radialGradient id="radial-gradient" cx="526.72" cy="468.65" r="468.65" gradientUnits="userSpaceOnUse"><stop offset="0" stop-color="#fff"/><stop offset="1" stop-color="#fff" stop-opacity="0"/></radialGradient><linearGradient id="linear-gradient" x1="723.17" y1="691.35" x2="339.88" y2="308.06" gradientUnits="userSpaceOnUse"><stop offset="0" stop-color="#fff" stop-opacity="0"/><stop offset="1" stop-color="#f6f"/></linearGradient><linearGradient id="linear-gradient-2" x1="111.06" y1="181.99" x2="111.06" y2="73.4" gradientUnits="userSpaceOnUse"><stop offset="0" stop-color="#9f9"/><stop offset="1" stop-color="#ff0"/></linearGradient><linearGradient id="linear-gradient-3" x1="111.06" y1="173.3" x2="111.06" y2="82.09" xlink:href="#linear-gradient-2"/><linearGradient id="linear-gradient-4" x1="111.06" y1="163.75" x2="111.06" y2="91.65" xlink:href="#linear-gradient-2"/><linearGradient id="linear-gradient-5" x1="111.06" y1="155.06" x2="111.06" y2="100.33" xlink:href="#linear-gradient-2"/><linearGradient id="linear-gradient-6" x1="861.16" y1="821.33" x2="944.55" y2="821.33" gradientUnits="userSpaceOnUse"><stop offset="0" stop-color="#f63"/><stop offset="1" stop-color="#f90"/></linearGradient><linearGradient id="linear-gradient-7" x1="871.58" y1="821.33" x2="934.13" y2="821.33" xlink:href="#linear-gradient-6"/><linearGradient id="linear-gradient-8" x1="902.85" y1="842.18" x2="902.85" y2="800.48" xlink:href="#linear-gradient-6"/><linearGradient id="linear-gradient-9" x1="919.36" y1="263.46" x2="940.21" y2="227.34" gradientUnits="userSpaceOnUse"><stop offset="0" stop-color="#f6f" stop-opacity="0.5"/><stop offset="0.42" stop-color="#ffa3ff" stop-opacity="0.3"/><stop offset="1" stop-color="#fff" stop-opacity="0"/></linearGradient><filter id="luminosity-noclip" x="125.23" y="-8692" width="812.58" height="32766" filterUnits="userSpaceOnUse" color-interpolation-filters="sRGB"><feFlood flood-color="#fff" result="bg"/><feBlend in="SourceGraphic" in2="bg"/></filter><mask id="mask" x="122.6" y="-8723.49" width="812.58" height="32766" maskUnits="userSpaceOnUse"><g filter="url(#luminosity-noclip)"/></mask><linearGradient id="linear-gradient-10" x1="617.82" y1="602.55" x2="445.22" y2="396.86" gradientUnits="userSpaceOnUse"><stop offset="0" stop-color="#004ad7"/><stop offset="0.62" stop-color="#a21bb0" stop-opacity="0.68"/><stop offset="1" stop-color="#f09" stop-opacity="0.5"/></linearGradient><linearGradient id="linear-gradient-11" x1="127.56" y1="684.33" x2="148.41" y2="648.22" gradientUnits="userSpaceOnUse"><stop offset="0" stop-color="#fff" stop-opacity="0"/><stop offset="0.58" stop-color="#ffa3ff" stop-opacity="0.3"/><stop offset="1" stop-color="#f6f" stop-opacity="0.5"/></linearGradient><linearGradient id="linear-gradient-12" x1="617.82" y1="602.55" x2="445.22" y2="396.86" gradientUnits="userSpaceOnUse"><stop offset="0"/><stop offset="0.13" stop-color="#1b000e"/><stop offset="0.73" stop-color="#99004d"/><stop offset="1" stop-color="#c06"/></linearGradient><linearGradient id="linear-gradient-13" x1="842.17" y1="550.42" x2="897.98" y2="550.42" gradientUnits="userSpaceOnUse"><stop offset="0" stop-color="#ffa8c7"/><stop offset="1" stop-color="#982e00"/></linearGradient><linearGradient id="linear-gradient-14" x1="556.15" y1="842.27" x2="578.08" y2="842.27" xlink:href="#linear-gradient-6"/><linearGradient id="linear-gradient-15" x1="171" y1="373.96" x2="171" y2="357.46" gradientUnits="userSpaceOnUse"><stop offset="0" stop-color="#eff7ff"/><stop offset="0.22" stop-color="#cbf9d1" stop-opacity="0.89"/><stop offset="0.76" stop-color="#72fd62" stop-opacity="0.61"/><stop offset="1" stop-color="#4fff35" stop-opacity="0.5"/></linearGradient><linearGradient id="linear-gradient-16" x1="361.67" y1="393.51" x2="378.18" y2="393.51" xlink:href="#linear-gradient-9"/><linearGradient id="linear-gradient-17" x1="614.02" y1="351.38" x2="614.02" y2="334.87" gradientUnits="userSpaceOnUse"><stop offset="0" stop-color="#fff"/><stop offset="0.29" stop-color="#c0b1fb"/><stop offset="0.78" stop-color="#5b33f4"/><stop offset="1" stop-color="#3300f1"/></linearGradient><linearGradient id="linear-gradient-18" x1="799.92" y1="695.37" x2="799.92" y2="678.87" xlink:href="#linear-gradient-11"/><linearGradient id="linear-gradient-19" x1="590.57" y1="174.17" x2="590.57" y2="157.66" gradientUnits="userSpaceOnUse"><stop offset="0" stop-color="#f4ff89" stop-opacity="0.5"/><stop offset="0.12" stop-color="#eedb7e" stop-opacity="0.5"/><stop offset="0.53" stop-color="#da6558" stop-opacity="0.5"/><stop offset="0.84" stop-color="#ce1c41" stop-opacity="0.5"/><stop offset="1" stop-color="#c90038" stop-opacity="0.5"/></linearGradient><linearGradient id="linear-gradient-20" x1="536.03" y1="751.62" x2="536.03" y2="521.26" gradientUnits="userSpaceOnUse"><stop offset="0" stop-color="#f6f"/><stop offset="0.12" stop-color="#ff6eff"/><stop offset="0.31" stop-color="#ff82ff"/><stop offset="0.54" stop-color="#ffa5ff"/><stop offset="0.79" stop-color="#ffd4ff"/><stop offset="1" stop-color="#fff"/></linearGradient><linearGradient id="linear-gradient-21" x1="421.46" y1="602.41" x2="390.63" y2="427.61" gradientUnits="userSpaceOnUse"><stop offset="0" stop-color="#03c"/><stop offset="0.12" stop-color="#0d44d0"/><stop offset="0.36" stop-color="#2f71dc"/><stop offset="0.7" stop-color="#64b9ed"/><stop offset="1" stop-color="#9ff"/></linearGradient><linearGradient id="linear-gradient-22" x1="669.29" y1="658.31" x2="390.39" y2="379.41" gradientUnits="userSpaceOnUse"><stop offset="0" stop-color="#39f"/><stop offset="0.24" stop-color="#47adff"/><stop offset="0.72" stop-color="#79dfff"/><stop offset="1" stop-color="#9ff"/></linearGradient><linearGradient id="linear-gradient-23" x1="753.57" y1="762.39" x2="632.57" y2="641.39" gradientUnits="userSpaceOnUse"><stop offset="0" stop-color="#30f"/><stop offset="1" stop-color="#f6f"/></linearGradient><linearGradient id="linear-gradient-24" x1="635.38" y1="696.58" x2="422.4" y2="239.85" gradientUnits="userSpaceOnUse"><stop offset="0" stop-color="#ff0" stop-opacity="0.8"/><stop offset="0.01" stop-color="#ffff13" stop-opacity="0.76"/><stop offset="0.04" stop-color="#ffff52" stop-opacity="0.64"/><stop offset="0.07" stop-color="#ff8" stop-opacity="0.53"/><stop offset="0.11" stop-color="#ffffb4" stop-opacity="0.45"/><stop offset="0.15" stop-color="#ffffd6" stop-opacity="0.38"/><stop offset="0.2" stop-color="#ffe" stop-opacity="0.33"/><stop offset="0.27" stop-color="#fffffb" stop-opacity="0.31"/><stop offset="0.48" stop-color="#fff" stop-opacity="0.3"/></linearGradient><filter id="luminosity-noclip-3" x="370.5" y="-8692" width="427.33" height="32766" filterUnits="userSpaceOnUse" color-interpolation-filters="sRGB"><feFlood flood-color="#fff" result="bg"/><feBlend in="SourceGraphic" in2="bg"/></filter><mask id="mask-3" x="367.87" y="-8723.49" width="427.33" height="32766" maskUnits="userSpaceOnUse"><g filter="url(#luminosity-noclip-3)"/></mask><linearGradient id="linear-gradient-25" x1="341.8" y1="762.76" x2="809.95" y2="434.96" gradientUnits="userSpaceOnUse"><stop offset="0.01" stop-color="#004ad7"/><stop offset="0.49" stop-color="#f09" stop-opacity="0.5"/><stop offset="0.68" stop-color="#a21bb0" stop-opacity="0.68"/><stop offset="1" stop-color="#004ad7"/></linearGradient></defs><g style="isolation:isolate"><g id="Layer_1" data-name="Layer 1"><g style="mix-blend-mode:overlay"><circle cx="526.72" cy="468.65" r="468.65" fill="url(#radial-gradient)"/></g><path id="Base" d="M531.52,770.73a271,271,0,1,1,191.65-79.38A269.25,269.25,0,0,1,531.52,770.73Z" transform="translate(-2.63 -31.49)" fill="url(#linear-gradient)" style="mix-blend-mode:hard-light"/><path d="M424.78,308.48a216.61,216.61,0,0,1,78.65-25.9" transform="translate(-2.63 -31.49)" fill="none" stroke="#fff" stroke-linecap="round" stroke-miterlimit="10" stroke-width="9"/><path d="M406.94,319.64" transform="translate(-2.63 -31.49)" fill="none" stroke="#fff" stroke-linecap="round" stroke-miterlimit="10" stroke-width="9"/><path d="M383.68,340.57a223.17,223.17,0,0,1,24.13-20.9" transform="translate(-2.63 -31.49)" fill="none" stroke="#fff" stroke-linecap="round" stroke-miterlimit="10" stroke-width="9"/><circle cx="111.06" cy="127.7" r="54.29" fill-opacity="0.15" fill="url(#linear-gradient-2)"/><circle cx="111.06" cy="127.7" r="45.61" fill-opacity="0.15" fill="url(#linear-gradient-3)"/><circle cx="111.06" cy="127.7" r="36.05" fill-opacity="0.15" fill="url(#linear-gradient-4)"/><circle cx="111.06" cy="127.7" r="27.36" stroke="#fff" stroke-miterlimit="10" fill="url(#linear-gradient-5)"/><circle cx="902.85" cy="821.33" r="41.7" fill-opacity="0.15" fill="url(#linear-gradient-6)"/><circle cx="902.85" cy="821.33" r="31.27" fill-opacity="0.15" fill="url(#linear-gradient-7)"/><circle cx="902.85" cy="821.33" r="20.85" fill="url(#linear-gradient-8)"/><circle cx="929.78" cy="245.4" r="20.85" fill="url(#linear-gradient-9)"/><g mask="url(#mask)"><path d="M928.79,221.54c-23.77-33.94-82.88-30.91-180.73,9.27-84.23,34.59-187,93.13-289.41,164.83S266.09,543.9,204.78,611.22c-71.22,78.2-94.29,132.71-70.53,166.66S217.14,808.79,315,768.6C399.21,734,502,675.48,604.39,603.78S797,455.52,858.26,388.2C929.49,310,952.56,255.48,928.79,221.54ZM591.08,584.77c-208.9,146.28-404.92,226.78-437.82,179.8S263.06,560.92,472,414.65s404.93-226.78,437.82-179.8S800,438.49,591.08,584.77Z" transform="translate(-2.63 -31.49)" fill="url(#linear-gradient-10)" style="mix-blend-mode:color-dodge"/></g><circle cx="137.99" cy="666.27" r="20.85" fill="url(#linear-gradient-11)"/><g mask="url(#mask)"><path d="M928.79,221.54c-23.77-33.94-82.88-30.91-180.73,9.27-84.23,34.59-187,93.13-289.41,164.83S266.09,543.9,204.78,611.22c-71.22,78.2-94.29,132.71-70.53,166.66S217.14,808.79,315,768.6C399.21,734,502,675.48,604.39,603.78S797,455.52,858.26,388.2C929.49,310,952.56,255.48,928.79,221.54ZM591.08,584.77c-208.9,146.28-404.92,226.78-437.82,179.8S263.06,560.92,472,414.65s404.93-226.78,437.82-179.8S800,438.49,591.08,584.77Z" transform="translate(-2.63 -31.49)" opacity="0.1" fill="url(#linear-gradient-12)" style="mix-blend-mode:screen"/></g><path d="M51.19,349.17,33.48,354a.87.87,0,0,0-.62.61l-4.71,17.75a.87.87,0,0,1-1.68,0l-4.83-17.71A.88.88,0,0,0,21,354L3.28,349.32a.87.87,0,0,1,0-1.68L21,342.81a.87.87,0,0,0,.61-.62l4.72-17.74a.87.87,0,0,1,1.68,0l4.83,17.72a.86.86,0,0,0,.61.61l17.75,4.72A.87.87,0,0,1,51.19,349.17Z" transform="translate(-2.63 -31.49)" fill="#fff"/><path d="M541.61,141.22l-9.08,2.48a.44.44,0,0,0-.32.31l-2.42,9.1a.45.45,0,0,1-.86,0L526.46,144a.47.47,0,0,0-.32-.31L517,141.3a.45.45,0,0,1,0-.86l9.08-2.48a.43.43,0,0,0,.32-.32l2.41-9.1a.45.45,0,0,1,.87,0l2.47,9.09a.44.44,0,0,0,.32.31l9.1,2.42A.45.45,0,0,1,541.61,141.22Z" transform="translate(-2.63 -31.49)" fill="#06f" stroke="#fff" stroke-miterlimit="10" style="mix-blend-mode:overlay"/><path d="M413.68,811.77l-7.42,2a.35.35,0,0,0-.26.26l-2,7.44a.36.36,0,0,1-.7,0l-2-7.43a.36.36,0,0,0-.26-.26l-7.44-2a.37.37,0,0,1,0-.71l7.43-2a.4.4,0,0,0,.26-.26l2-7.44a.37.37,0,0,1,.71,0l2,7.42a.38.38,0,0,0,.26.26l7.44,2A.36.36,0,0,1,413.68,811.77Z" transform="translate(-2.63 -31.49)" fill="#fff"/><path d="M959.18,592.14A.22.22,0,0,1,959,592l-4.12-15.11A1.25,1.25,0,0,0,954,576l-15.14-4a.22.22,0,0,1-.18-.23.23.23,0,0,1,.18-.24l15.11-4.11a1.26,1.26,0,0,0,.87-.88l4-15.14a.24.24,0,0,1,.24-.18.23.23,0,0,1,.23.18l4.12,15.11a1.21,1.21,0,0,0,.88.87l15.13,4a.24.24,0,0,1,0,.46L964.31,576a1.25,1.25,0,0,0-.87.88l-4,15.13A.22.22,0,0,1,959.18,592.14Z" transform="translate(-2.63 -31.49)" fill="#6692ff"/><path d="M959.06,552.42l3.87,14.18a1.74,1.74,0,0,0,1.23,1.23l14.21,3.77-14.19,3.87A1.74,1.74,0,0,0,963,576.7l-3.78,14.21-3.86-14.18a1.77,1.77,0,0,0-1.24-1.23l-14.21-3.78,14.19-3.86a1.72,1.72,0,0,0,1.22-1.23l3.78-14.21m0-1.74a.74.74,0,0,0-.72.55l-4,15.14a.74.74,0,0,1-.52.52L938.69,571a.74.74,0,0,0,0,1.43l15.14,4a.72.72,0,0,1,.52.52l4.12,15.11a.74.74,0,0,0,1.43,0l4-15.13a.75.75,0,0,1,.53-.53l15.1-4.11a.75.75,0,0,0,0-1.44l-15.13-4a.75.75,0,0,1-.53-.52l-4.12-15.11a.73.73,0,0,0-.71-.55Z" transform="translate(-2.63 -31.49)"/><path d="M110.93,352.66a7.6,7.6,0,0,1-10.3-11.18c3.09-2.85,34.38-21.34,34.38-21.34S114,349.81,110.93,352.66Z" transform="translate(-2.63 -31.49)" fill="#06f" stroke="#fff" stroke-miterlimit="10" style="mix-blend-mode:overlay"/><path d="M417.79,205.15a5,5,0,0,1-6.64-7.57c2.09-1.84,23.1-13.59,23.1-13.59S419.88,203.31,417.79,205.15Z" transform="translate(-2.63 -31.49)" fill="#06f" stroke="#fff" stroke-miterlimit="10" style="mix-blend-mode:overlay"/><path d="M668.43,207.08a7.1,7.1,0,0,1-4.69-12.44c2.61-2.29,25.66-15.32,32.74-19.3-4.86,6.5-20.75,27.68-23.37,30A7.1,7.1,0,0,1,668.43,207.08Z" transform="translate(-2.63 -31.49)" fill="#fff"/><path d="M694.67,176.93c-7.88,10.53-19.74,26.12-21.89,28a6.6,6.6,0,1,1-8.71-9.92c2.15-1.89,19.14-11.63,30.6-18.09m3.62-3.18s-31.73,17.75-34.88,20.52a7.6,7.6,0,1,0,10,11.42c3.15-2.77,24.85-31.94,24.85-31.94Z" transform="translate(-2.63 -31.49)"/><path d="M723.72,196.54a2.94,2.94,0,1,1-3.88-4.41c1.22-1.07,13.47-7.92,13.47-7.92S724.93,195.48,723.72,196.54Z" transform="translate(-2.63 -31.49)" fill="#06f" stroke="#fff" stroke-miterlimit="10" style="mix-blend-mode:overlay"/><path d="M861,572.8a11.32,11.32,0,1,1-15-17c4.7-4.13,52-30.57,52-30.57S865.67,568.68,861,572.8Z" transform="translate(-2.63 -31.49)" stroke="#fff" stroke-miterlimit="10" fill="url(#linear-gradient-13)"/><path d="M563.54,851.06a4.45,4.45,0,1,1-5.87-6.68c1.84-1.62,20.41-12,20.41-12S565.38,849.44,563.54,851.06Z" transform="translate(-2.63 -31.49)" fill="url(#linear-gradient-14)"/><path d="M71.78,610.56a4.8,4.8,0,1,1-6.34-7.22c2-1.76,22.06-13,22.06-13S73.78,608.81,71.78,610.56Z" transform="translate(-2.63 -31.49)" fill="#06f" stroke="#fff" stroke-miterlimit="10" style="mix-blend-mode:overlay"/><circle cx="171" cy="365.71" r="8.25" fill="url(#linear-gradient-15)"/><circle cx="369.92" cy="393.51" r="8.25" fill="url(#linear-gradient-16)"/><circle cx="614.02" cy="343.13" r="8.25" fill="url(#linear-gradient-17)"/><circle cx="799.92" cy="687.12" r="8.25" fill="url(#linear-gradient-18)"/><circle cx="590.57" cy="165.92" r="8.25" fill="url(#linear-gradient-19)"/><path d="M778.62,549a251.95,251.95,0,0,1-247.1,202.63c-110.22,0-203.91-70.78-238.08-169.38,32.84,27.55,73.49,56.08,125.87,55.89,77.82-.29,106.84-55.25,163.13-90a179.85,179.85,0,0,1,74.7-26.1C689,518.16,733.34,528.63,778.62,549Z" transform="translate(-2.63 -31.49)" stroke="#fff" stroke-miterlimit="10" fill="url(#linear-gradient-20)"/><path d="M538.53,542.92c-33.93,29-64.68,57.69-120.86,57.9-57.55.21-100.94-34.25-135.34-64a253.77,253.77,0,0,1-2.72-37.11c0-2.16,0-4.29.08-6.43.17-.9.34-1.78.52-2.67l.13-.12c54.58-55.42,95.74-64.89,124.79-61.58,46.67,5.32,79.81,45.64,115.87,91.68C526.75,527.93,532.57,535.41,538.53,542.92Z" transform="translate(-2.63 -31.49)" fill="url(#linear-gradient-21)"/><path d="M783.44,499.71A253.09,253.09,0,0,1,778.62,549c-45.28-20.36-89.59-30.83-121.48-26.91a179.85,179.85,0,0,0-74.7,26.1c-56.29,34.7-85.31,89.66-163.13,90-52.38.19-93-28.34-125.87-55.89a250.29,250.29,0,0,1-11.11-45.42,253.77,253.77,0,0,1-2.72-37.11c0-2.16,0-4.29.08-6.43,0-1.1.06-2.18.1-3.27l.55.48C315.72,521.31,360.88,560.22,422,560c44-.16,72.43-17.81,99-39.4,7.33-6,14.54-12.23,21.88-18.5,30-25.61,62.38-51.44,117-58.14,32-3.94,76.52,6.63,122,27.13A255.39,255.39,0,0,1,783.44,499.71Z" transform="translate(-2.63 -31.49)" fill="url(#linear-gradient-22)"/><circle cx="693.07" cy="701.89" r="85.56" fill="url(#linear-gradient-23)" style="mix-blend-mode:overlay"/><g opacity="0.2" style="mix-blend-mode:overlay"><path d="M598.53,256.82a251.47,251.47,0,0,1,98,199.45c0,139.13-112.79,251.92-251.92,251.92a251.86,251.86,0,0,1-67-9,250.76,250.76,0,0,0,153.87,52.46c139.13,0,251.92-112.78,251.92-251.91C783.44,383.78,705.13,286.16,598.53,256.82Z" transform="translate(-2.63 -31.49)" fill="#fff"/></g><circle cx="528.89" cy="468.22" r="251.92" fill="url(#linear-gradient-24)"/><path d="M723.17,308.06a271,271,0,1,0,79.38,191.65A269.25,269.25,0,0,0,723.17,308.06ZM531.52,751.62c-139.12,0-251.91-112.79-251.91-251.91S392.4,247.79,531.52,247.79,783.44,360.58,783.44,499.71,670.65,751.62,531.52,751.62Z" transform="translate(-2.63 -31.49)" fill="#ff6" style="mix-blend-mode:overlay"/><path d="M791.59,422.93l-.73.69q-7.36,7-15.11,14.12A251.26,251.26,0,0,1,781,464.4q8.6-7.77,16.84-15.45Q795.35,435.75,791.59,422.93ZM389.8,708q-9.78,5.06-19.3,9.79,10.77,8,22.21,14.83,10.05-5.13,20.31-10.57A247,247,0,0,1,389.8,708Z" transform="translate(-2.63 -31.49)" fill="#ff6" style="mix-blend-mode:overlay"/><g mask="url(#mask-3)"><path d="M791.59,422.93l-.73.69q-7.36,7-15.11,14.12c-51.22,47.11-114.17,97.66-184.67,147-65.27,45.7-129.27,85-187.44,116q-7,3.71-13.84,7.27-9.78,5.06-19.3,9.79,10.77,8,22.21,14.83,10.05-5.13,20.31-10.57l3.55-1.89c59.68-31.9,123.82-71.57,187.83-116.39C669.67,558.07,730,510.39,781,464.4q8.6-7.77,16.84-15.45Q795.35,435.75,791.59,422.93Z" transform="translate(-2.63 -31.49)" fill="url(#linear-gradient-25)" style="mix-blend-mode:multiply"/></g></g></g></svg>